<svg width="16" height="16" viewBox="0 0 16 16" fill="none" xmlns="http://www.w3.org/2000/svg">
<path d="M13.2227 3.375C14.207 3.375 14.9727 4.16797 14.9727 5.125V12.125C14.9727 13.1094 14.1797 13.875 13.2227 13.875H2.72266C1.73828 13.875 0.972656 13.1094 0.972656 12.125V3.375C0.972656 2.41797 1.73828 1.625 2.72266 1.625H5.94922C6.41406 1.625 6.85156 1.81641 7.17969 2.14453L8.51953 3.375H13.2227ZM13.6602 12.125V5.125C13.6602 4.90625 13.4414 4.6875 13.2227 4.6875H7.97266L6.22266 3.07422C6.14062 2.99219 6.03125 2.9375 5.92188 2.9375H2.72266C2.47656 2.9375 2.28516 3.15625 2.28516 3.375V12.125C2.28516 12.3711 2.47656 12.5625 2.72266 12.5625H13.2227C13.4414 12.5625 13.6602 12.3711 13.6602 12.125Z" fill="#3E3232" fill-opacity="0.5"/>
</svg>
