<svg width="16" height="16" viewBox="0 0 16 16" fill="none" xmlns="http://www.w3.org/2000/svg">
<path d="M6 2H12.1562L13 2.84375V5H15V2.4375C15 2.15625 14.875 1.90625 14.6875 1.71875L13.2812 0.3125C13.0938 0.125 12.8438 0 12.5625 0H5C4.4375 0 4 0.46875 4 1V5H6V2ZM2 4H1C0.4375 4 0 4.46875 0 5V15C0 15.5625 0.4375 16 1 16H2C2.53125 16 3 15.5625 3 15V5C3 4.46875 2.53125 4 2 4ZM15 6H4V15C4 15.5625 4.4375 16 5 16H15C15.5312 16 16 15.5625 16 15V7C16 6.46875 15.5312 6 15 6ZM9 13.5C9 13.7812 8.75 14 8.5 14H7.5C7.21875 14 7 13.7812 7 13.5V12.5C7 12.25 7.21875 12 7.5 12H8.5C8.75 12 9 12.25 9 12.5V13.5ZM9 9.5C9 9.78125 8.75 10 8.5 10H7.5C7.21875 10 7 9.78125 7 9.5V8.5C7 8.25 7.21875 8 7.5 8H8.5C8.75 8 9 8.25 9 8.5V9.5ZM13 13.5C13 13.7812 12.75 14 12.5 14H11.5C11.2188 14 11 13.7812 11 13.5V12.5C11 12.25 11.2188 12 11.5 12H12.5C12.75 12 13 12.25 13 12.5V13.5ZM13 9.5C13 9.78125 12.75 10 12.5 10H11.5C11.2188 10 11 9.78125 11 9.5V8.5C11 8.25 11.2188 8 11.5 8H12.5C12.75 8 13 8.25 13 8.5V9.5Z" fill="#3E3232" fill-opacity="0.5"/>
</svg>
