<svg width="40" height="40" viewBox="0 0 40 40" fill="none" xmlns="http://www.w3.org/2000/svg">
<rect width="40" height="40" rx="12" fill="black" fill-opacity="0.05"/>
<path d="M26.5 20C26.5 20.5625 26.0312 21.0312 25.5 21.0312H21V25.5312C21 26.0625 20.5312 26.5 20 26.5C19.4375 26.5 19 26.0625 19 25.5312V21.0312H14.5C13.9375 21.0312 13.5 20.5625 13.5 20C13.5 19.4688 13.9375 19.0312 14.5 19.0312H19V14.5312C19 13.9688 19.4375 13.5 20 13.5C20.5312 13.5 21 13.9688 21 14.5312V19.0312H25.5C26.0312 19 26.5 19.4688 26.5 20Z" fill="#3E3232"/>
</svg>
