<svg width="32" height="32" viewBox="0 0 32 32" fill="none" xmlns="http://www.w3.org/2000/svg">
<path d="M12.4375 10.5L14.8125 10.8125C15 10.8125 15.1875 10.9375 15.25 11.125C15.3125 11.3125 15.25 11.5 15.125 11.625L13.375 13.3125L13.8125 15.6875C13.875 15.875 13.75 16.0625 13.625 16.1875C13.4375 16.3125 13.25 16.3125 13.0625 16.1875L10.9375 15.0625L8.875 16.1875C8.6875 16.3125 8.5 16.3125 8.3125 16.1875C8.1875 16.0625 8.0625 15.875 8.125 15.6875L8.5625 13.3125L6.8125 11.625C6.6875 11.5 6.625 11.3125 6.6875 11.125C6.75 10.9375 6.9375 10.8125 7.125 10.8125L9.5 10.5L10.5 8.3125C10.625 8.125 10.75 8 10.9375 8C11.1875 8 11.3125 8.125 11.4375 8.3125L12.4375 10.5ZM22.4375 10.5L24.8125 10.8125C25 10.8125 25.1875 10.9375 25.25 11.125C25.3125 11.3125 25.25 11.5 25.125 11.625L23.375 13.3125L23.8125 15.6875C23.875 15.875 23.75 16.0625 23.625 16.1875C23.4375 16.3125 23.25 16.3125 23.0625 16.1875L21 15.0625L18.875 16.1875C18.6875 16.3125 18.5 16.3125 18.3125 16.1875C18.1875 16.0625 18.0625 15.875 18.125 15.6875L18.5625 13.3125L16.8125 11.625C16.6875 11.5 16.625 11.3125 16.6875 11.125C16.75 10.9375 16.9375 10.8125 17.125 10.8125L19.5 10.5L20.5 8.3125C20.625 8.125 20.75 8 21 8C21.1875 8 21.3125 8.125 21.4375 8.3125L22.4375 10.5ZM21.8125 19.3125C23 19 24.0625 20.0625 23.375 21.0625C21.875 23.4375 19.125 25 15.9375 25C12.8125 25 10.0625 23.4375 8.5 21.0625C7.875 20.0625 8.9375 19 10.125 19.3125C11.9375 19.75 13.875 19.9375 15.9375 19.9375C18.0625 19.9375 20 19.75 21.8125 19.3125ZM0 16C0 7.1875 7.125 0 16 0C24.8125 0 32 7.1875 32 16C32 24.875 24.8125 32 16 32C7.125 32 0 24.875 0 16ZM16 29C23.125 29 29 23.1875 29 16C29 8.875 23.125 3 16 3C8.8125 3 3 8.875 3 16C3 23.1875 8.8125 29 16 29Z" fill="#26DE81"/>
</svg>
