<svg width="20" height="20" viewBox="0 0 20 20" fill="none" xmlns="http://www.w3.org/2000/svg">
<path d="M7.5 15.625C7.5 15.9766 7.1875 16.25 6.875 16.25C6.52344 16.25 6.25 15.9766 6.25 15.625V7.5C6.25 7.1875 6.52344 6.875 6.875 6.875C7.1875 6.875 7.5 7.1875 7.5 7.5V15.625ZM10.625 15.625C10.625 15.9766 10.3125 16.25 10 16.25C9.64844 16.25 9.375 15.9766 9.375 15.625V7.5C9.375 7.1875 9.64844 6.875 10 6.875C10.3125 6.875 10.625 7.1875 10.625 7.5V15.625ZM13.75 15.625C13.75 15.9766 13.4375 16.25 13.125 16.25C12.7734 16.25 12.5 15.9766 12.5 15.625V7.5C12.5 7.1875 12.7734 6.875 13.125 6.875C13.4375 6.875 13.75 7.1875 13.75 7.5V15.625ZM13.6328 0.976562L15.0781 3.125H17.8125C18.3203 3.125 18.75 3.55469 18.75 4.0625C18.75 4.60938 18.3203 5 17.8125 5H17.5V16.875C17.5 18.6328 16.0938 20 14.375 20H5.625C3.86719 20 2.5 18.6328 2.5 16.875V5H2.1875C1.64062 5 1.25 4.60938 1.25 4.0625C1.25 3.55469 1.64062 3.125 2.1875 3.125H4.88281L6.32812 0.976562C6.71875 0.390625 7.42188 0 8.16406 0H11.7969C12.5391 0 13.2422 0.390625 13.6328 0.976562ZM7.14844 3.125H12.8125L12.0703 2.03125C12.0312 1.95312 11.9141 1.875 11.7969 1.875H8.16406C8.04688 1.875 7.92969 1.95312 7.89062 2.03125L7.14844 3.125ZM4.375 16.875C4.375 17.5781 4.92188 18.125 5.625 18.125H14.375C15.0391 18.125 15.625 17.5781 15.625 16.875V5H4.375V16.875Z" fill="#3E3232" fill-opacity="0.5"/>
</svg>
