<svg width="32" height="32" viewBox="0 0 32 32" fill="none" xmlns="http://www.w3.org/2000/svg">
<path d="M9 13C9 11.9375 9.875 11 11 11C12.125 11 13 11.9375 13 13C13 14.125 12.125 15 11 15C9.875 15 9 14.125 9 13ZM23 13C23 14.125 22.125 15 21 15C19.875 15 19 14.125 19 13C19 11.9375 19.875 11 21 11C22.125 11 23 11.9375 23 13ZM20.5 20.5C21.3125 20.5 22 21.1875 22 22C22 22.875 21.3125 23.5 20.5 23.5H11.5C10.625 23.5 10 22.875 10 22C10 21.1875 10.625 20.5 11.5 20.5H20.5ZM32 16C32 24.875 24.8125 32 16 32C7.125 32 0 24.875 0 16C0 7.1875 7.125 0 16 0C24.8125 0 32 7.1875 32 16ZM16 29C23.125 29 29 23.1875 29 16C29 8.875 23.125 3 16 3C8.8125 3 3 8.875 3 16C3 23.1875 8.8125 29 16 29Z" fill="#FA8231"/>
</svg>
