<svg width="32" height="32" viewBox="0 0 32 32" fill="none" xmlns="http://www.w3.org/2000/svg">
<path d="M20.5 24.625C19.875 25.1875 18.9375 25.1875 18.375 24.5625C17.9375 24.0625 17.125 23.5 16 23.5C14.8125 23.5 14 24.0625 13.5625 24.5625C13 25.1875 12.0625 25.1875 11.4375 24.625C10.8125 24.0625 10.8125 23.125 11.375 22.5C12.25 21.5625 13.8125 20.5 16 20.5C18.125 20.5 19.6875 21.5625 20.5625 22.5C21.125 23.125 21.125 24.0625 20.5 24.625ZM9 15C9 14.5 9.1875 14 9.5625 13.625L7.625 13C7.125 12.8125 6.875 12.25 7 11.6875C7.1875 11.1875 7.75 10.875 8.3125 11.0625L14.3125 13.0625C14.8125 13.25 15.0625 13.8125 14.9375 14.375C14.75 14.875 14.1875 15.125 13.625 15L13 14.75C13 14.8125 13 14.9375 13 15C13 16.125 12.125 17 11 17C9.875 17 9 16.125 9 15ZM23 15C23 16.125 22.125 17 21 17C19.875 17 19 16.125 19 15C19 14.9375 19 14.8125 19 14.75L18.3125 15C17.75 15.125 17.1875 14.875 17 14.375C16.875 13.8125 17.125 13.25 17.625 13.0625L23.625 11.0625C24.1875 10.875 24.75 11.1875 24.9375 11.6875C25.0625 12.25 24.8125 12.8125 24.3125 13L22.375 13.625C22.75 13.9375 23 14.5 23 15ZM0 16C0 7.1875 7.125 0 16 0C24.8125 0 32 7.1875 32 16C32 24.875 24.8125 32 16 32C7.125 32 0 24.875 0 16ZM16 29C23.125 29 29 23.1875 29 16C29 8.875 23.125 3 16 3C8.8125 3 3 8.875 3 16C3 23.1875 8.8125 29 16 29Z" fill="#FC5C65"/>
</svg>
