<svg width="20" height="20" viewBox="0 0 20 20" fill="none" xmlns="http://www.w3.org/2000/svg">
<path d="M9.96484 0.75C10.3164 0.75 10.5977 0.960938 10.7383 1.24219L13.1641 6.19922L18.543 7.00781C18.8594 7.04297 19.1055 7.28906 19.2109 7.57031C19.3164 7.88672 19.2461 8.20312 19 8.44922L15.0977 12.3164L16.0117 17.7656C16.082 18.082 15.9414 18.4336 15.6953 18.6094C15.4141 18.7852 15.0625 18.8203 14.7812 18.6797L9.96484 16.0781L5.14844 18.6797C4.86719 18.8203 4.55078 18.7852 4.26953 18.6094C4.02344 18.4336 3.88281 18.082 3.91797 17.7656L4.86719 12.3164L0.964844 8.44922C0.71875 8.20312 0.648438 7.88672 0.753906 7.57031C0.859375 7.28906 1.10547 7.04297 1.42188 7.00781L6.80078 6.19922L9.22656 1.24219C9.36719 0.960938 9.64844 0.75 9.96484 0.75ZM9.96484 3.52734L8.13672 7.35938C7.99609 7.60547 7.78516 7.78125 7.50391 7.81641L3.32031 8.41406L6.34375 11.4023C6.55469 11.6133 6.625 11.8945 6.58984 12.1758L5.88672 16.3594L9.57812 14.3906C9.82422 14.25 10.1406 14.25 10.3867 14.3906L14.0781 16.3594L13.375 12.1758C13.3047 11.8945 13.4102 11.6133 13.6211 11.4023L16.6094 8.41406L12.4609 7.81641C12.1797 7.78125 11.9336 7.60547 11.8281 7.35938L9.96484 3.52734Z" fill="#3E3232" fill-opacity="0.5"/>
</svg>
