<svg width="14" height="13" viewBox="0 0 14 13" fill="none" xmlns="http://www.w3.org/2000/svg">
<path d="M7 6.75C7.95703 6.75 8.75 7.54297 8.75 8.5C8.75 9.48438 7.95703 10.25 7 10.25C6.01562 10.25 5.25 9.48438 5.25 8.5C5.25 7.54297 6.01562 6.75 7 6.75ZM12.7148 3.30469C12.9609 3.55078 13.125 3.90625 13.125 4.23438V11.125C13.125 12.1094 12.332 12.875 11.375 12.875H2.625C1.64062 12.875 0.875 12.1094 0.875 11.125V2.375C0.875 1.41797 1.64062 0.625 2.625 0.625H9.51562C9.84375 0.625 10.1992 0.789062 10.418 1.00781L12.7148 3.30469ZM4.375 1.9375V4.125H8.3125V1.9375H4.375ZM11.8125 11.125V4.31641C11.8125 4.26172 11.7852 4.23438 11.7578 4.20703L9.625 2.04688V4.78125C9.625 5.16406 9.32422 5.4375 8.96875 5.4375H3.71875C3.33594 5.4375 3.0625 5.16406 3.0625 4.78125V1.9375H2.625C2.37891 1.9375 2.1875 2.15625 2.1875 2.375V11.125C2.1875 11.3711 2.37891 11.5625 2.625 11.5625H11.375C11.5938 11.5625 11.8125 11.3711 11.8125 11.125Z" fill="#3E3232" fill-opacity="0.5"/>
</svg>
