<svg width="14" height="13" viewBox="0 0 14 13" fill="none" xmlns="http://www.w3.org/2000/svg">
<path d="M7.875 2.375H1.75C1.25781 2.375 0.875 1.99219 0.875 1.5C0.875 1.03516 1.25781 0.625 1.75 0.625H7.875C8.33984 0.625 8.75 1.03516 8.75 1.5C8.75 1.99219 8.33984 2.375 7.875 2.375ZM7.875 9.375H1.75C1.25781 9.375 0.875 8.99219 0.875 8.5C0.875 8.03516 1.25781 7.625 1.75 7.625H7.875C8.33984 7.625 8.75 8.03516 8.75 8.5C8.75 8.99219 8.33984 9.375 7.875 9.375ZM0.875 5C0.875 4.53516 1.25781 4.125 1.75 4.125H12.25C12.7148 4.125 13.125 4.53516 13.125 5C13.125 5.49219 12.7148 5.875 12.25 5.875H1.75C1.25781 5.875 0.875 5.49219 0.875 5ZM12.25 12.875H1.75C1.25781 12.875 0.875 12.4922 0.875 12C0.875 11.5352 1.25781 11.125 1.75 11.125H12.25C12.7148 11.125 13.125 11.5352 13.125 12C13.125 12.4922 12.7148 12.875 12.25 12.875Z" fill="#3E3232" fill-opacity="0.5"/>
</svg>
