<svg width="21" height="21" viewBox="0 0 21 21" fill="none" xmlns="http://www.w3.org/2000/svg">
<path d="M14.5703 1.97656C15.6641 0.882812 17.4219 0.882812 18.5156 1.97656L19.0234 2.48438C20.1172 3.57812 20.1172 5.33594 19.0234 6.42969L11.2891 14.1641C10.9766 14.4766 10.5469 14.75 10.0781 14.8672L6.17188 16C5.85938 16.0781 5.50781 16 5.27344 15.7266C5 15.4922 4.92188 15.1406 5 14.8281L6.13281 10.9219C6.25 10.4531 6.52344 10.0234 6.83594 9.71094L14.5703 1.97656ZM17.1875 3.30469C16.8359 2.95312 16.25 2.95312 15.8984 3.30469L14.7266 4.4375L16.5625 6.27344L17.6953 5.10156C18.0469 4.75 18.0469 4.16406 17.6953 3.8125L17.1875 3.30469ZM7.92969 11.4297L7.26562 13.7344L9.57031 13.0703C9.72656 13.0312 9.84375 12.9531 9.96094 12.8359L15.2344 7.5625L13.4375 5.76562L8.16406 11.0391C8.04688 11.1562 7.96875 11.2734 7.92969 11.4297ZM7.8125 3.5C8.32031 3.5 8.75 3.92969 8.75 4.4375C8.75 4.98438 8.32031 5.375 7.8125 5.375H3.4375C2.53906 5.375 1.875 6.07812 1.875 6.9375V17.5625C1.875 18.4609 2.53906 19.125 3.4375 19.125H14.0625C14.9219 19.125 15.625 18.4609 15.625 17.5625V13.1875C15.625 12.6797 16.0156 12.25 16.5625 12.25C17.0703 12.25 17.5 12.6797 17.5 13.1875V17.5625C17.5 19.4766 15.9375 21 14.0625 21H3.4375C1.52344 21 0 19.4766 0 17.5625V6.9375C0 5.0625 1.52344 3.5 3.4375 3.5H7.8125Z" fill="#3E3232" fill-opacity="0.5"/>
</svg>
