<svg width="32" height="32" viewBox="0 0 32 32" fill="none" xmlns="http://www.w3.org/2000/svg">
<path d="M21.8125 19.3125C23 19 24.0625 20.0625 23.375 21.0625C21.875 23.4375 19.125 25 15.9375 25C12.8125 25 10.0625 23.4375 8.5 21.0625C7.875 20.0625 8.9375 19 10.125 19.3125C11.9375 19.75 13.875 19.9375 15.9375 19.9375C18.0625 19.9375 20 19.75 21.8125 19.3125ZM14 12C14 14.25 13.0625 16 12 16C10.875 16 10 14.25 10 12C10 9.8125 10.875 8 12 8C13.0625 8 14 9.8125 14 12ZM18 12C18 9.8125 18.875 8 20 8C21.0625 8 22 9.8125 22 12C22 14.25 21.0625 16 20 16C18.875 16 18 14.25 18 12ZM32 16C32 24.875 24.8125 32 16 32C7.125 32 0 24.875 0 16C0 7.1875 7.125 0 16 0C24.8125 0 32 7.1875 32 16ZM16 3C8.8125 3 3 8.875 3 16C3 23.1875 8.8125 29 16 29C23.125 29 29 23.1875 29 16C29 8.875 23.125 3 16 3Z" fill="#F7B731"/>
</svg>
