<svg width="32" height="32" viewBox="0 0 32 32" fill="none" xmlns="http://www.w3.org/2000/svg">
<path d="M21.8125 19.3125C23 19 24.0625 20.0625 23.375 21.0625C21.875 23.4375 19.125 25 15.9375 25C12.8125 25 10.0625 23.4375 8.5 21.0625C7.875 20.0625 8.9375 19 10.125 19.3125C11.9375 19.75 13.875 19.9375 15.9375 19.9375C18.0625 19.9375 20 19.75 21.8125 19.3125ZM14.875 11.125L13.8125 15.1875C13.6875 15.75 13.125 16.0625 12.5625 15.9375L8.5 14.8125C7.375 14.5625 6.75 13.375 7.0625 12.3125C7.3125 11.1875 8.5 10.5 9.5625 10.8125L10.625 11.0625L10.875 10.0625C11.1875 8.9375 12.3125 8.3125 13.4375 8.625C14.5625 8.875 15.1875 10.0625 14.875 11.125ZM21.3125 11.0625L22.375 10.8125C23.4375 10.5 24.625 11.1875 24.875 12.3125C25.1875 13.375 24.5625 14.5625 23.4375 14.8125L19.375 15.9375C18.8125 16.0625 18.25 15.75 18.125 15.1875L17.0625 11.125C16.75 10.0625 17.375 8.875 18.5 8.625C19.625 8.3125 20.75 8.9375 21.0625 10.0625L21.3125 11.0625ZM32 16C32 24.875 24.8125 32 16 32C7.125 32 0 24.875 0 16C0 7.1875 7.125 0 16 0C24.8125 0 32 7.1875 32 16ZM16 3C8.8125 3 3 8.875 3 16C3 23.1875 8.8125 29 16 29C23.125 29 29 23.1875 29 16C29 8.875 23.125 3 16 3Z" fill="#45AAF2"/>
</svg>
