<svg width="18" height="15" viewBox="0 0 18 15" fill="none" xmlns="http://www.w3.org/2000/svg">
<path d="M4.95312 4.35938C6.48438 2.82812 9 2.82812 10.5312 4.35938C11.8984 5.72656 12.0898 7.88672 10.9688 9.47266L10.9414 9.5C10.668 9.91016 10.1211 9.99219 9.71094 9.71875C9.32812 9.41797 9.21875 8.87109 9.51953 8.48828L9.54688 8.46094C10.1758 7.55859 10.0664 6.38281 9.30078 5.61719C8.45312 4.74219 7.05859 4.74219 6.18359 5.61719L3.12109 8.67969C2.24609 9.52734 2.24609 10.9219 3.12109 11.7969C3.88672 12.5625 5.08984 12.6445 5.96484 12.043L5.99219 11.9883C6.40234 11.7148 6.94922 11.7969 7.22266 12.207C7.49609 12.5898 7.41406 13.1367 7.03125 13.4375L6.97656 13.4648C5.39062 14.5859 3.25781 14.3945 1.89062 13.0273C0.332031 11.4961 0.332031 8.98047 1.89062 7.44922L4.95312 4.35938ZM13.0195 11.1406C11.4883 12.6992 8.97266 12.6992 7.44141 11.1406C6.07422 9.77344 5.88281 7.64062 7.00391 6.05469L7.03125 6.02734C7.30469 5.61719 7.85156 5.53516 8.26172 5.80859C8.64453 6.08203 8.75391 6.62891 8.45312 7.03906L8.42578 7.06641C7.79688 7.94141 7.90625 9.14453 8.67188 9.91016C9.51953 10.7852 10.9141 10.7852 11.7891 9.91016L14.8516 6.84766C15.7266 5.97266 15.7266 4.57812 14.8516 3.73047C14.0859 2.96484 12.8828 2.85547 12.0078 3.48438L11.9805 3.51172C11.5703 3.8125 11.0234 3.70312 10.75 3.32031C10.4766 2.9375 10.5586 2.39062 10.9414 2.08984L10.9961 2.0625C12.582 0.941406 14.7148 1.13281 16.082 2.5C17.6406 4.03125 17.6406 6.54688 16.082 8.07812L13.0195 11.1406Z" fill="#3E3232" fill-opacity="0.5"/>
</svg>
