<svg width="14" height="13" viewBox="0 0 14 13" fill="none" xmlns="http://www.w3.org/2000/svg">
<path d="M12.4688 0.625C13.2891 0.625 14 1.33594 14 2.15625V10.4688C14 11.8086 12.9062 12.875 11.5938 12.875H1.96875C0.875 12.875 0 12 0 10.9062V2.8125C0 2.45703 0.273438 2.15625 0.65625 2.15625C1.01172 2.15625 1.3125 2.45703 1.3125 2.8125V10.9062C1.3125 11.2891 1.58594 11.5625 1.96875 11.5625C2.32422 11.5625 2.625 11.2891 2.625 10.9062V2.15625C2.625 1.33594 3.30859 0.625 4.15625 0.625H12.4688ZM12.6875 10.4688V2.15625C12.6875 2.04688 12.5781 1.9375 12.4688 1.9375H4.15625C4.01953 1.9375 3.9375 2.04688 3.9375 2.15625V10.9062C3.9375 11.1523 3.88281 11.3711 3.80078 11.5625H11.5938C12.1953 11.5625 12.6875 11.0977 12.6875 10.4688ZM7.21875 7.1875C7.57422 7.1875 7.875 7.48828 7.875 7.84375C7.875 8.22656 7.57422 8.5 7.21875 8.5H5.46875C5.08594 8.5 4.8125 8.22656 4.8125 7.84375C4.8125 7.48828 5.08594 7.1875 5.46875 7.1875H7.21875ZM11.1562 7.1875C11.5117 7.1875 11.8125 7.48828 11.8125 7.84375C11.8125 8.22656 11.5117 8.5 11.1562 8.5H9.40625C9.02344 8.5 8.75 8.22656 8.75 7.84375C8.75 7.48828 9.02344 7.1875 9.40625 7.1875H11.1562ZM7.21875 9.375C7.57422 9.375 7.875 9.67578 7.875 10.0312C7.875 10.4141 7.57422 10.6875 7.21875 10.6875H5.46875C5.08594 10.6875 4.8125 10.4141 4.8125 10.0312C4.8125 9.67578 5.08594 9.375 5.46875 9.375H7.21875ZM11.1562 9.375C11.5117 9.375 11.8125 9.67578 11.8125 10.0312C11.8125 10.4141 11.5117 10.6875 11.1562 10.6875H9.40625C9.02344 10.6875 8.75 10.4141 8.75 10.0312C8.75 9.67578 9.02344 9.375 9.40625 9.375H11.1562ZM10.9375 2.8125C11.4023 2.8125 11.8125 3.22266 11.8125 3.6875V5.4375C11.8125 5.92969 11.4023 6.3125 10.9375 6.3125H5.6875C5.19531 6.3125 4.8125 5.92969 4.8125 5.4375V3.6875C4.8125 3.22266 5.19531 2.8125 5.6875 2.8125H10.9375Z" fill="#3E3232" fill-opacity="0.5"/>
</svg>
