<svg width="14" height="15" viewBox="0 0 14 15" fill="none" xmlns="http://www.w3.org/2000/svg">
<path d="M8.3125 9.0625C10.9648 9.0625 13.125 11.2227 13.125 13.875C13.125 14.3672 12.7148 14.75 12.25 14.75H1.75C1.25781 14.75 0.875 14.3672 0.875 13.875C0.875 11.2227 3.00781 9.0625 5.6875 9.0625H8.3125ZM2.1875 13.4375H11.7852C11.5664 11.7148 10.0898 10.375 8.3125 10.375H5.6875C3.88281 10.375 2.40625 11.7148 2.1875 13.4375ZM7 7.75C5.05859 7.75 3.5 6.19141 3.5 4.25C3.5 2.33594 5.05859 0.75 7 0.75C8.91406 0.75 10.5 2.33594 10.5 4.25C10.5 6.19141 8.91406 7.75 7 7.75ZM7 2.0625C5.76953 2.0625 4.8125 3.04688 4.8125 4.25C4.8125 5.48047 5.76953 6.4375 7 6.4375C8.20312 6.4375 9.1875 5.48047 9.1875 4.25C9.1875 3.04688 8.20312 2.0625 7 2.0625Z" fill="#3E3232" fill-opacity="0.5"/>
</svg>
