<svg width="16" height="17" viewBox="0 0 16 17" fill="none" xmlns="http://www.w3.org/2000/svg">
<path d="M15.1424 8.31777L12.9656 15.0462C12.8254 15.3059 12.6253 15.5282 12.365 15.713C12.1048 15.8979 11.8146 15.9953 11.4943 16.0053C11.2141 15.9953 10.9338 15.8929 10.6536 15.6981C10.3734 15.5033 10.1832 15.286 10.0831 15.0462L7.90625 8.31777C7.67605 7.73834 7.62851 7.27379 7.76363 6.92413C7.89874 6.57447 8.14645 6.39964 8.50676 6.39964H14.5419C14.9022 6.39964 15.1499 6.57447 15.285 6.92413C15.4202 7.27379 15.3726 7.73834 15.1424 8.31777ZM11.4493 16.0053H11.5393H11.4493ZM8.64187 3.52245C8.64187 2.72323 8.92462 2.0439 9.4901 1.48444C10.0556 0.924991 10.7362 0.645264 11.5318 0.645264C12.3275 0.645264 13.0056 0.924991 13.5661 1.48444C14.1266 2.0439 14.4068 2.72323 14.4068 3.52245C14.4068 4.32167 14.1266 5.00101 13.5661 5.56046C13.0056 6.11992 12.3275 6.39964 11.5318 6.39964C10.7362 6.39964 10.0556 6.11992 9.4901 5.56046C8.92462 5.00101 8.64187 4.32167 8.64187 3.52245ZM6.85535 16.0053H0.805194C0.454895 16.0053 0.212188 15.8304 0.0770728 15.4808C-0.0580425 15.1311 -0.0155062 14.6666 0.204682 14.0871L2.84693 6.21982C2.28646 6.01002 1.82857 5.66037 1.47326 5.17084C1.11796 4.68132 0.940309 4.13186 0.940309 3.52245C0.940309 2.72323 1.22305 2.0439 1.78853 1.48444C2.35401 0.924991 3.03459 0.645264 3.83027 0.645264C4.62595 0.645264 5.30653 0.924991 5.87201 1.48444C6.4375 2.0439 6.72024 2.72323 6.72024 3.52245C6.72024 4.14185 6.53758 4.6988 6.17227 5.19332C5.80696 5.68784 5.33906 6.035 4.76857 6.23481L7.45586 14.0871C7.68606 14.6666 7.7311 15.1311 7.59098 15.4808C7.45086 15.8304 7.20565 16.0053 6.85535 16.0053Z" fill="#B60B1F"/>
</svg>
