<svg width="22" height="12" viewBox="0 0 22 12" fill="none" xmlns="http://www.w3.org/2000/svg">
<path d="M10.8458 7.28917C8.50754 7.28917 6.52093 8.02873 5.22334 9.18793V11.344H16.4691V9.18793C15.1715 8.02873 13.1845 7.28917 10.8458 7.28917ZM21.1707 6.18266L10.8185 0.994019L0.470703 6.18266L2.19563 7.04124V8.36181C1.7631 8.45919 1.7618 8.70571 1.7618 8.9988C1.7618 9.17193 1.81457 9.3747 1.91492 9.49607L1.32322 10.8736H3.43396L2.84745 9.49513C2.94607 9.37376 3.02695 9.19498 3.02695 9.02186C3.02695 8.72923 2.62816 8.45872 2.62816 8.36134V7.26188L4.79081 8.31853V8.22491C6.0884 6.99749 8.36826 6.21842 10.8454 6.21842C13.3233 6.21842 15.604 6.99749 16.9016 8.22491V8.31853L21.1707 6.18266Z" fill="#B60B1F"/>
</svg>
