<svg width="16" height="18" viewBox="0 0 16 18" fill="none" xmlns="http://www.w3.org/2000/svg">
<path d="M13.3689 2.28426H11.6978V0.645264H10.0267V2.28426H5.01333V0.645264H3.34222V2.28426H1.67111C0.749493 2.28426 0 3.01936 0 3.92326V15.3963C0 16.3002 0.749493 17.0353 1.67111 17.0353H13.3689C14.2905 17.0353 15.04 16.3002 15.04 15.3963V3.92326C15.04 3.01936 14.2905 2.28426 13.3689 2.28426ZM9.53536 14.5768L7.48908 13.5212L5.44281 14.5768L5.83385 12.3412L4.17778 10.7595L6.46553 10.4334L7.48908 8.40101L8.51264 10.4334L10.8004 10.7595L9.14515 12.342L9.53536 14.5768ZM13.3689 6.38176H1.67111V4.74276H13.3689V6.38176Z" fill="#B60B1F"/>
</svg>
