<svg width="20" height="20" viewBox="0 0 20 20" fill="none" xmlns="http://www.w3.org/2000/svg">
<path d="M9.73742 6.8569C7.82778 6.8569 6.28106 8.40345 6.28106 10.3129C6.28106 12.2223 7.82778 13.7688 9.73742 13.7688C11.6471 13.7688 13.1938 12.2223 13.1938 10.3129C13.1938 8.40345 11.6471 6.8569 9.73742 6.8569ZM17.4624 9.44888C17.2667 7.69681 16.4809 6.06336 15.2342 4.81675C13.9874 3.57015 12.3538 2.78449 10.6015 2.58878V0.80896H8.87333V2.58878C7.12106 2.78449 5.48742 3.57015 4.24067 4.81675C2.99393 6.06336 2.20818 7.69681 2.01245 9.44888H0.232422V11.1769H2.01245C2.20818 12.9289 2.99393 14.5624 4.24067 15.809C5.48742 17.0556 7.12106 17.8412 8.87333 18.037V19.8168H10.6015V18.037C12.3538 17.8412 13.9874 17.0556 15.2342 15.809C16.4809 14.5624 17.2667 12.9289 17.4624 11.1769H19.2424V9.44888H17.4624ZM9.73742 16.3608C6.39339 16.3608 3.68879 13.6565 3.68879 10.3129C3.68879 6.96922 6.39339 4.26493 9.73742 4.26493C13.0815 4.26493 15.7861 6.96922 15.7861 10.3129C15.7861 13.6565 13.0815 16.3608 9.73742 16.3608Z" fill="#B60B1F"/>
</svg>
